<svg xmlns="http://www.w3.org/2000/svg" xml:space="preserve" id="svg1" width="490.395" height="490.395" viewBox="0 0 163.465 163.465"><g id="layer2" style="display:inline" transform="translate(-288.934 -51.86)"><path id="rect3" d="M296.942 51.86h147.45a7.99 7.99 0 0 1 8.007 8.009v147.449a7.99 7.99 0 0 1-8.008 8.008H296.942a7.99 7.99 0 0 1-8.008-8.008V59.868a7.99 7.99 0 0 1 8.008-8.007" style="display:inline;opacity:1;fill:#fff;fill-opacity:1;stroke-width:15;stroke-linecap:round;stroke-linejoin:round"/><g id="layer1" style="display:inline"><path id="rect1-1" d="M363.133 174c-2.77 0-5 2.23-5 5v3.17c0 2.77 2.23 5 5 5H378.2c2.77 0 5-2.23 5-5V179c0-2.77-2.23-5-5-5h-7.535z" style="display:inline;fill:#51cba9;fill-opacity:1;stroke-width:5;stroke-linecap:round;stroke-linejoin:round"/><path id="rect1" d="M316.654 104.973h14.384a5.33 5.33 0 0 1 5.341 5.341v7.192a5.33 5.33 0 0 1-5.341 5.342h-14.384a5.33 5.33 0 0 1-5.34-5.342v-7.192a5.33 5.33 0 0 1 5.34-5.34m108.025 0h-14.383a5.33 5.33 0 0 0-5.342 5.341v7.192a5.33 5.33 0 0 0 5.342 5.342h14.383a5.33 5.33 0 0 0 5.341-5.342v-7.192a5.33 5.33 0 0 0-5.341-5.34" style="display:inline;fill:#51cba9;fill-opacity:1;stroke-width:5;stroke-linecap:round;stroke-linejoin:round"/><path id="rect1-5" d="M364.8 74.99a6.654 6.654 0 0 0-6.667 6.668v57.315a6.653 6.653 0 0 0 6.668 6.666h11.732a6.65 6.65 0 0 0 6.666-6.666V81.658a6.653 6.653 0 0 0-6.666-6.668h-5.867z" style="fill:#51cba9;fill-opacity:1;stroke-width:5;stroke-linecap:round;stroke-linejoin:round"/></g></g></svg>